<?xml version="1.0" standalone="no"?>
<!DOCTYPE svg PUBLIC "-//W3C//DTD SVG 20010904//EN"
 "http://www.w3.org/TR/2001/REC-SVG-20010904/DTD/svg10.dtd">
<svg version="1.0" xmlns="http://www.w3.org/2000/svg"
 width="1024.000000pt" height="1024.000000pt" viewBox="0 0 1024.000000 1024.000000"
 preserveAspectRatio="xMidYMid meet">

<g transform="translate(0.000000,1024.000000) scale(0.100000,-0.100000)"
fill="#000000" stroke="none">
<path d="M6029 8817 c-22 -15 -39 -38 -49 -65 -13 -37 -13 -47 0 -84 24 -67
51 -80 185 -89 245 -17 434 -68 645 -175 155 -79 269 -164 387 -287 226 -237
362 -526 406 -867 15 -119 25 -143 70 -170 56 -34 114 -22 167 35 23 25 25 33
24 123 -4 248 -114 570 -278 817 -140 209 -283 351 -491 491 -275 183 -630
293 -946 294 -73 0 -91 -3 -120 -23z"/>
<path d="M6073 8300 c-58 -35 -77 -98 -49 -165 21 -50 55 -66 156 -77 475 -47
825 -366 905 -822 22 -129 56 -169 140 -169 50 0 88 21 116 66 25 40 21 118
-16 261 -54 215 -146 375 -315 547 -124 126 -228 201 -373 269 -198 93 -484
139 -564 90z"/>
<path d="M6143 7784 c-86 -43 -93 -168 -13 -226 14 -10 55 -24 92 -32 94 -19
169 -60 232 -126 62 -65 98 -130 121 -220 21 -83 29 -97 68 -120 68 -42 157
-11 186 64 13 35 13 48 -1 118 -31 150 -129 311 -246 403 -75 60 -202 122
-288 140 -87 19 -111 18 -151 -1z"/>
<path d="M3025 7741 c-11 -5 -27 -17 -37 -27 -21 -24 -336 -685 -354 -743 -41
-132 10 -305 121 -410 140 -132 340 -164 511 -81 109 53 173 122 220 239 18
45 24 52 29 36 87 -256 352 -383 603 -287 74 29 153 91 194 154 31 48 43 72
63 133 5 16 11 9 29 -35 83 -207 293 -320 507 -275 172 35 288 140 344 310 6
16 10 11 26 -29 81 -204 275 -316 490 -286 231 33 392 227 377 455 -5 66 -14
89 -163 400 -87 182 -166 349 -176 372 -11 26 -31 51 -51 63 -33 20 -49 20
-1373 19 -737 0 -1349 -4 -1360 -8z"/>
<path d="M6573 6811 c-28 -9 -68 -30 -87 -45 -72 -54 -84 -91 -226 -659 -269
-1081 -270 -1082 -346 -1167 -20 -22 -61 -52 -92 -67 l-57 -28 -1172 -5
c-1169 -5 -1172 -5 -1200 -26 -65 -48 -62 -155 6 -201 29 -20 47 -23 127 -23
l94 0 -35 -49 c-94 -131 -106 -286 -33 -424 142 -266 539 -255 668 19 61 131
43 293 -46 409 l-34 45 506 0 506 0 -26 -35 c-15 -19 -39 -61 -54 -93 -23 -50
-27 -70 -27 -157 0 -89 3 -107 28 -160 135 -290 542 -296 683 -9 26 54 29 68
29 164 0 99 -2 110 -32 171 -18 36 -44 78 -57 92 l-25 27 43 0 c61 0 188 35
249 67 114 62 205 172 268 321 19 47 103 361 214 805 101 400 190 739 199 753
10 13 28 29 42 34 14 6 125 10 247 10 202 0 225 2 254 20 40 24 55 51 55 104
1 52 -14 82 -55 106 -30 18 -52 20 -297 20 -228 -1 -272 -3 -317 -19z m-2606
-2407 c46 -35 60 -92 38 -151 -22 -57 -63 -83 -129 -83 -43 0 -53 4 -87 39
-68 68 -51 172 34 212 51 23 98 18 144 -17z m1521 10 c34 -22 62 -74 62 -114
0 -41 -28 -92 -64 -115 -14 -9 -45 -17 -71 -17 -145 0 -185 188 -55 255 39 20
89 16 128 -9z"/>
<path d="M2942 6238 c-7 -7 -12 -25 -12 -40 0 -15 45 -207 101 -425 72 -288
109 -413 131 -455 34 -64 100 -131 168 -171 100 -58 71 -57 1181 -57 990 0
1019 1 1082 20 79 25 156 89 193 162 14 28 48 150 79 281 30 128 74 319 100
426 25 106 45 203 45 216 0 44 -28 55 -143 55 -118 0 -118 0 -131 -75 -21
-123 -159 -735 -171 -763 -8 -17 -29 -41 -47 -52 -32 -20 -52 -20 -1004 -20
-699 0 -981 3 -1005 11 -51 17 -97 55 -118 98 -11 21 -59 204 -106 407 -48
203 -92 375 -97 382 -14 17 -229 17 -246 0z"/>
<path d="M4485 3562 c-184 -56 -310 -179 -371 -362 -28 -84 -24 -234 8 -326
110 -313 459 -453 758 -303 92 46 192 145 233 230 142 293 7 633 -298 749 -83
32 -245 37 -330 12z m280 -221 c243 -114 247 -470 7 -588 -48 -24 -69 -28
-137 -28 -102 1 -166 27 -230 96 -88 94 -114 204 -77 326 43 139 156 223 302
223 62 0 86 -5 135 -29z"/>
<path d="M3345 3548 c-3 -7 -4 -238 -3 -513 l3 -500 329 -3 c234 -2 333 1 342
9 10 8 14 36 14 95 0 73 -2 85 -20 94 -13 7 -96 10 -235 8 l-215 -3 0 400 c0
299 -3 404 -12 413 -17 17 -197 16 -203 0z"/>
<path d="M5727 3553 c-4 -3 -7 -151 -7 -328 0 -369 -5 -415 -54 -464 -62 -62
-177 -48 -234 29 -28 38 -46 38 -127 -2 -55 -27 -65 -36 -65 -58 0 -29 44
-103 81 -137 69 -63 214 -96 324 -73 125 25 217 96 267 206 22 48 23 59 26
427 2 281 0 382 -9 393 -8 10 -36 14 -104 14 -50 0 -95 -3 -98 -7z"/>
<path d="M6433 3548 c-15 -20 -393 -971 -393 -989 0 -24 21 -29 126 -29 108 0
98 -9 149 133 l28 77 202 0 202 0 37 -99 c21 -55 45 -102 53 -105 8 -3 57 -6
109 -6 74 0 96 3 100 15 5 13 -368 976 -389 1003 -6 8 -42 12 -112 12 -70 0
-106 -4 -112 -12z m185 -458 c34 -90 60 -166 58 -167 -2 -2 -62 -2 -134 -1
l-130 3 34 90 c19 50 48 127 66 173 17 46 34 79 38 75 4 -4 35 -82 68 -173z"/>
<path d="M2001 2236 c-8 -9 -11 -113 -9 -362 l3 -349 75 0 75 0 3 349 c2 249
-1 353 -9 362 -7 9 -33 14 -69 14 -36 0 -62 -5 -69 -14z"/>
<path d="M2292 2242 c-9 -7 -12 -86 -10 -363 l3 -354 75 0 75 0 0 217 c0 132
4 213 9 208 5 -5 77 -103 161 -217 l151 -208 69 0 70 0 0 360 0 360 -70 0 -70
0 -5 -224 -5 -224 -161 224 -160 224 -60 3 c-32 1 -65 -2 -72 -6z"/>
<path d="M3012 2238 c-7 -7 -12 -38 -12 -69 0 -68 1 -69 116 -69 l84 0 2 -287
3 -288 75 0 75 0 3 288 2 287 90 0 c54 0 91 4 96 11 3 6 7 35 7 64 0 29 -4 58
-7 64 -10 16 -518 15 -534 -1z"/>
<path d="M3662 2242 c-9 -7 -12 -86 -10 -363 l3 -354 230 0 230 0 0 60 0 60
-152 3 -153 3 0 79 0 80 129 0 c76 0 131 4 133 10 2 5 1 35 0 65 l-4 55 -129
0 -129 0 0 85 0 85 150 0 150 0 0 64 c0 49 -4 65 -16 70 -23 9 -417 7 -432 -2z"/>
<path d="M4255 2238 c-3 -7 -4 -171 -3 -363 l3 -350 214 -3 c148 -2 217 1 221
9 6 8 6 66 1 111 -1 4 -65 9 -143 10 l-143 3 -5 295 -5 295 -68 3 c-48 2 -69
-1 -72 -10z"/>
<path d="M4805 2238 c-3 -7 -4 -171 -3 -363 l3 -350 73 -3 72 -3 -2 363 -3
363 -68 3 c-48 2 -69 -1 -72 -10z"/>
<path d="M5300 2235 c-152 -50 -249 -208 -237 -386 9 -137 81 -250 196 -306
51 -26 66 -28 171 -28 106 0 119 2 168 28 125 66 186 159 187 286 l0 76 -164
3 c-115 2 -168 -1 -178 -9 -9 -8 -13 -28 -11 -63 l3 -51 98 -5 98 -5 -27 -42
c-38 -57 -89 -84 -163 -84 -140 -1 -223 85 -224 232 0 120 74 213 180 226 68
8 117 -10 174 -64 l48 -45 55 33 c70 42 72 62 12 117 -78 72 -137 95 -246 99
-64 2 -109 -2 -140 -12z"/>
<path d="M5907 2244 c-4 -4 -7 -169 -7 -366 l0 -358 230 0 230 0 0 65 0 64
-151 3 -151 3 0 75 0 75 131 3 131 3 0 54 c0 30 0 58 0 63 0 4 -59 9 -131 12
l-131 5 0 80 0 80 151 3 152 3 -3 67 -3 67 -221 3 c-121 1 -223 -1 -227 -4z"/>
<path d="M6495 2237 c-3 -6 -4 -170 -3 -362 l3 -350 72 -3 73 -3 2 222 3 222
153 -211 c84 -116 159 -216 167 -222 8 -6 40 -10 77 -8 l63 3 0 360 0 360 -63
3 c-98 5 -95 13 -90 -235 2 -117 1 -213 -2 -213 -3 0 -11 10 -19 23 -8 12 -79
113 -158 225 l-145 202 -64 0 c-43 0 -66 -4 -69 -13z"/>
<path d="M7214 2236 c-3 -7 -4 -40 -2 -72 l3 -59 92 -3 93 -3 2 -287 3 -287
75 0 75 0 3 288 2 287 90 0 c51 0 92 4 95 11 11 17 13 113 2 127 -15 19 -526
17 -533 -2z"/>
<path d="M7867 2243 c-4 -3 -7 -168 -7 -365 l0 -358 228 2 227 3 0 60 0 60
-150 5 -150 5 -3 77 -3 77 133 3 133 3 3 62 3 62 -133 3 -133 3 0 80 0 80 150
5 150 5 3 53 c2 31 -2 60 -9 68 -9 11 -53 14 -224 14 -116 0 -215 -3 -218 -7z"/>
</g>
</svg>
